/* XPM */
static char * blender_xpm[] = {
"48 48 462 2",
"  	c None",
". 	c #EDA45B",
"+ 	c #E89039",
"@ 	c #EB8C2F",
"# 	c #EA9642",
"$ 	c #E68E31",
"% 	c #EE9034",
"& 	c #EE8E31",
"* 	c #F08F34",
"= 	c #EF9032",
"- 	c #E7A158",
"; 	c #F08E31",
"> 	c #F08F2F",
", 	c #EF9133",
"' 	c #F18D2F",
") 	c #EF9038",
"! 	c #EC9031",
"~ 	c #E29442",
"{ 	c #EC963F",
"] 	c #ED9032",
"^ 	c #EE9035",
"/ 	c #F28F30",
"( 	c #F48D30",
"_ 	c #F48C2B",
": 	c #EB9840",
"< 	c #E9913B",
"[ 	c #EF8E2E",
"} 	c #EC9034",
"| 	c #ED8F37",
"1 	c #EF9238",
"2 	c #ED8F32",
"3 	c #EE8C32",
"4 	c #E6A15B",
"5 	c #E59C4E",
"6 	c #EA8E2D",
"7 	c #F39030",
"8 	c #EE8E36",
"9 	c #F29032",
"0 	c #F09031",
"a 	c #F28B2D",
"b 	c #E69543",
"c 	c #ECA863",
"d 	c #E88F32",
"e 	c #F0912C",
"f 	c #EE8F35",
"g 	c #EE8F36",
"h 	c #F08F30",
"i 	c #E79747",
"j 	c #ED923A",
"k 	c #F09136",
"l 	c #EF9034",
"m 	c #E98E36",
"n 	c #DF9B4F",
"o 	c #E89642",
"p 	c #EE933C",
"q 	c #EC943C",
"r 	c #EC923B",
"s 	c #EA933D",
"t 	c #EE922E",
"u 	c #E89A4D",
"v 	c #EA9542",
"w 	c #F49134",
"x 	c #F09034",
"y 	c #ED8E33",
"z 	c #EC9038",
"A 	c #F08F36",
"B 	c #F48D34",
"C 	c #E8903B",
"D 	c #EF8F30",
"E 	c #EB9541",
"F 	c #F18B2A",
"G 	c #EB8F38",
"H 	c #F19132",
"I 	c #EE9033",
"J 	c #EA8E38",
"K 	c #EF8E33",
"L 	c #EF9036",
"M 	c #E99036",
"N 	c #EF9035",
"O 	c #EE8E35",
"P 	c #ED912F",
"Q 	c #EE912E",
"R 	c #F09032",
"S 	c #EF9033",
"T 	c #EE9133",
"U 	c #EB9135",
"V 	c #F19137",
"W 	c #EF8E2F",
"X 	c #F19235",
"Y 	c #F19034",
"Z 	c #EA9238",
"` 	c #E69038",
" .	c #F18F2C",
"..	c #F38E2F",
"+.	c #EE902E",
"@.	c #F28E35",
"#.	c #F58E2B",
"$.	c #F18E32",
"%.	c #F19036",
"&.	c #F09038",
"*.	c #F09036",
"=.	c #F19037",
"-.	c #F08E36",
";.	c #F08F37",
">.	c #F48F35",
",.	c #F68D32",
"'.	c #EC9136",
").	c #EB9235",
"!.	c #ED9132",
"~.	c #EB8F36",
"{.	c #E78E34",
"].	c #E6A054",
"^.	c #EC923D",
"/.	c #E58F35",
"(.	c #EA8D2E",
"_.	c #E78C2E",
":.	c #EE8F34",
"<.	c #EF9948",
"[.	c #EE9038",
"}.	c #EB9036",
"|.	c #EE8E32",
"1.	c #F1902F",
"2.	c #EE8D2C",
"3.	c #E9953F",
"4.	c #EA9E4F",
"5.	c #E78C30",
"6.	c #F48C28",
"7.	c #E9943E",
"8.	c #E49C4E",
"9.	c #EC8E32",
"0.	c #F08E33",
"a.	c #F48E34",
"b.	c #F28E36",
"c.	c #ED8F36",
"d.	c #F28E2F",
"e.	c #EF8E34",
"f.	c #F0902F",
"g.	c #E29445",
"h.	c #DF9B50",
"i.	c #EE9030",
"j.	c #F3902A",
"k.	c #E98F33",
"l.	c #EA9C4B",
"m.	c #E99C47",
"n.	c #E49642",
"o.	c #F28F2F",
"p.	c #F29031",
"q.	c #F39035",
"r.	c #EE9036",
"s.	c #F19032",
"t.	c #E39848",
"u.	c #E9943F",
"v.	c #F38E31",
"w.	c #ED9034",
"x.	c #F29034",
"y.	c #ED9134",
"z.	c #EE9132",
"A.	c #F19035",
"B.	c #E69544",
"C.	c #E39A50",
"D.	c #F08E32",
"E.	c #ED9135",
"F.	c #EC9130",
"G.	c #F18F32",
"H.	c #E3A25D",
"I.	c #E2913E",
"J.	c #F28D30",
"K.	c #EE9135",
"L.	c #EE9235",
"M.	c #F18F36",
"N.	c #EE9031",
"O.	c #F18F2E",
"P.	c #EB9744",
"Q.	c #4E7D9C",
"R.	c #356A8D",
"S.	c #5C86A1",
"T.	c #E6A461",
"U.	c #EC8E2F",
"V.	c #EF8F36",
"W.	c #EE8F32",
"X.	c #E48E35",
"Y.	c #E69E54",
"Z.	c #F18F30",
"`.	c #EE9138",
" +	c #EE9032",
".+	c #EE8F3A",
"++	c #F4912E",
"@+	c #E89440",
"#+	c #1D5982",
"$+	c #044C7E",
"%+	c #024C80",
"&+	c #015086",
"*+	c #015188",
"=+	c #064F82",
"-+	c #2A6288",
";+	c #E69E52",
">+	c #F38E30",
",+	c #EC8F34",
"'+	c #F29132",
")+	c #E99642",
"!+	c #E99540",
"~+	c #F18E2E",
"{+	c #F08F33",
"]+	c #EC9037",
"^+	c #ED9030",
"/+	c #EE9037",
"(+	c #ED8D2E",
"_+	c #0A5080",
":+	c #015085",
"<+	c #015289",
"[+	c #014F82",
"}+	c #015186",
"|+	c #015187",
"1+	c #015185",
"2+	c #155482",
"3+	c #E79644",
"4+	c #EF9137",
"5+	c #ED8F34",
"6+	c #F18C31",
"7+	c #E99038",
"8+	c #F28F31",
"9+	c #EC9036",
"0+	c #EF9031",
"a+	c #135784",
"b+	c #005288",
"c+	c #015083",
"d+	c #015284",
"e+	c #004F84",
"f+	c #005188",
"g+	c #005086",
"h+	c #01538A",
"i+	c #015287",
"j+	c #21608C",
"k+	c #E09E55",
"l+	c #F48C2C",
"m+	c #EC9033",
"n+	c #F28F2B",
"o+	c #EA9B4B",
"p+	c #E7A056",
"q+	c #E58F39",
"r+	c #F09134",
"s+	c #F08E30",
"t+	c #ED8E2E",
"u+	c #ED9A48",
"v+	c #205A80",
"w+	c #014F83",
"x+	c #005186",
"y+	c #015286",
"z+	c #024C81",
"A+	c #4B789A",
"B+	c #F28D33",
"C+	c #EC8F30",
"D+	c #F28E37",
"E+	c #F0912D",
"F+	c #EA9643",
"G+	c #EE8F30",
"H+	c #F49030",
"I+	c #F09033",
"J+	c #EE9233",
"K+	c #EE8F2E",
"L+	c #E69A4E",
"M+	c #31688E",
"N+	c #01538C",
"O+	c #015084",
"P+	c #015590",
"Q+	c #1F5C86",
"R+	c #EA923F",
"S+	c #EF9130",
"T+	c #E88E36",
"U+	c #EE923D",
"V+	c #F19236",
"W+	c #DBA766",
"X+	c #28648E",
"Y+	c #025288",
"Z+	c #015184",
"`+	c #326A91",
" @	c #EE9944",
".@	c #EF8F32",
"+@	c #F09C44",
"@@	c #ED8E32",
"#@	c #EB8F34",
"$@	c #EE9134",
"%@	c #EA9640",
"&@	c #EF9642",
"*@	c #F08F35",
"=@	c #EF8E2C",
"-@	c #E0A25E",
";@	c #2A638A",
">@	c #005187",
",@	c #005087",
"'@	c #005289",
")@	c #014E82",
"!@	c #015089",
"~@	c #14527E",
"{@	c #EE9236",
"]@	c #EC8F33",
"^@	c #EF8D2D",
"/@	c #F4AB66",
"(@	c #E69039",
"_@	c #EF8F31",
":@	c #EE8E33",
"<@	c #F29232",
"[@	c #EE9136",
"}@	c #EB8F32",
"|@	c #EE9742",
"1@	c #ED9E51",
"2@	c #F28F33",
"3@	c #EC9234",
"4@	c #ED9234",
"5@	c #F28E2E",
"6@	c #014D84",
"7@	c #015088",
"8@	c #014E87",
"9@	c #055287",
"0@	c #044E83",
"a@	c #F19033",
"b@	c #F08E2F",
"c@	c #F2AE68",
"d@	c #EB973F",
"e@	c #F08F2C",
"f@	c #F29030",
"g@	c #F29134",
"h@	c #F09030",
"i@	c #F18E2F",
"j@	c #E89643",
"k@	c #E89A4B",
"l@	c #F78E33",
"m@	c #E79B4C",
"n@	c #185782",
"o@	c #015087",
"p@	c #005088",
"q@	c #025186",
"r@	c #015189",
"s@	c #025087",
"t@	c #406E8F",
"u@	c #F09C4A",
"v@	c #EE8E30",
"w@	c #E98C30",
"x@	c #EA9038",
"y@	c #F29235",
"z@	c #E59039",
"A@	c #E9A058",
"B@	c #F19135",
"C@	c #F2943E",
"D@	c #295F86",
"E@	c #014A7F",
"F@	c #025084",
"G@	c #025284",
"H@	c #025188",
"I@	c #044A7A",
"J@	c #3E6D8F",
"K@	c #E89748",
"L@	c #EF9239",
"M@	c #EF8F34",
"N@	c #EB9038",
"O@	c #E98E30",
"P@	c #F49036",
"Q@	c #EA8F36",
"R@	c #F49439",
"S@	c #F19130",
"T@	c #F09037",
"U@	c #EE9A47",
"V@	c #266591",
"W@	c #225D85",
"X@	c #145488",
"Y@	c #236290",
"Z@	c #226088",
"`@	c #E99F53",
" #	c #EA8E34",
".#	c #ED8F35",
"+#	c #F29237",
"@#	c #ED9B4B",
"##	c #E59A4A",
"$#	c #F18F38",
"%#	c #ED9037",
"&#	c #F28E32",
"*#	c #F09439",
"=#	c #F3A052",
"-#	c #F39E4D",
";#	c #EA8E36",
">#	c #F28F35",
",#	c #F08E2B",
"'#	c #E29E57",
")#	c #F28C2E",
"!#	c #EE9237",
"~#	c #F48F2C",
"{#	c #F28F2D",
"]#	c #F4A050",
"^#	c #F58D33",
"/#	c #EE9137",
"(#	c #EE9130",
"_#	c #F29133",
":#	c #F49C4B",
"<#	c #E6A25E",
"[#	c #ED8F2F",
"}#	c #ED8F33",
"|#	c #F19134",
"1#	c #F19031",
"2#	c #E29B52",
"3#	c #F09035",
"4#	c #EE8F38",
"5#	c #E68C30",
"6#	c #E6A056",
"7#	c #F39536",
"8#	c #EF9132",
"9#	c #F28E34",
"0#	c #EA923D",
"a#	c #EEA352",
"b#	c #EA9844",
"c#	c #EC9039",
"d#	c #EE8F31",
"e#	c #F08E34",
"f#	c #E9913C",
"g#	c #EE9942",
"h#	c #EB9A49",
"i#	c #F29439",
"j#	c #EC9138",
"k#	c #EB9B4C",
"l#	c #EEA459",
"m#	c #F1A555",
"n#	c #F5B06F",
"o#	c #EB9D50",
"p#	c #EA9036",
"q#	c #EF9234",
"r#	c #EF9135",
"s#	c #F38E34",
"t#	c #F08D31",
"u#	c #EC933B",
"v#	c #F4AD69",
"w#	c #F09337",
"x#	c #F2963C",
"y#	c #EC8E34",
"z#	c #F08F32",
"A#	c #EA9139",
"B#	c #F4A65D",
"C#	c #F39134",
"D#	c #EE8F33",
"E#	c #F68E33",
"F#	c #EF9037",
"G#	c #E99032",
"H#	c #F4A151",
"I#	c #EF9136",
"J#	c #EE8E2F",
"K#	c #E59344",
"L#	c #F6AA63",
"M#	c #F09238",
"N#	c #ED9033",
"O#	c #EB8E2F",
"P#	c #E89641",
"Q#	c #F19E4C",
"R#	c #F09237",
"S#	c #EE9131",
"T#	c #F4912C",
"U#	c #EA8C2D",
"V#	c #F29F51",
"W#	c #F0943B",
"X#	c #F09239",
"Y#	c #EE8E34",
"Z#	c #E6943E",
"`#	c #F39A44",
" $	c #F29941",
".$	c #F09F49",
"                                                                                                ",
"                                                                                                ",
"                                                                                                ",
"                                                                                                ",
"                                                                                                ",
"                                                                                                ",
"                                              . + @ #                                           ",
"                                              $ % & * = -                                       ",
"                                              ; > , ' ) ! ~                                     ",
"                                                { ] ^ / ( _ :                                   ",
"                                                  < [ } | 1 2 3 4                               ",
"                                                    5 6 7 8 9 0 a b                             ",
"                                                      c d e * f g h i                           ",
"                                                          j k l l l l m                         ",
"                  n o p p p p p p p p p p p p p p p p q r s t l l l l 0 > u                     ",
"                v w % x x x x x x x x x x x x x x x x y z A B l l l l / C D E                   ",
"                F G H I I I I J K % ^ L L L L M } N O L P Q R % S T U V W X Y Z                 ",
"                `  .9 x x x x ..} +.@.l l l l #.$.%.&.*.=.-.;.l L >.,.'.).!.Q ~.{.].            ",
"                  ^./.(.(.(.(.3 _.:.<.l l l l [.}.|.1.2.3.4.5.6.7.8.9.0.a.b.c.d.e.f.g.          ",
"                                    h.l l l l i.j.k.l.                m.n.o.p.g q.r.s.t.        ",
"                                  u.v.w.x.y.z.A.B.                        C.D.E.F.R l G.H.      ",
"                                I.J.K.L.M.N.O.P.            Q.R.S.          T.U.V.D.W.h X.      ",
"                            Y.Z.D.0 `. +.+++@+          #+$+%+&+*+=+-+        ;+>+*.,+R '+)+    ",
"                          !+~+{+ +]+^+x /+(+          _+:+<+<+[+}+|+1+2+        3+N.4+N 5+6+    ",
"                        7+8+9+x x 0+S %.= @+        a+b+c+d+e+f+b+g+h+i+j+      k+l+m+z.l n+o+  ",
"                    p+q+r+s+/+l l l l ^ t+u+      v+w+x+x+x+x+x+x+x+x+y+z+A+      B+C+% D+E+F+  ",
"                  < G+H+I+k I+l l l l J+K+L+      M+N+x+x+x+x+x+x+x+x+O+P+Q+      R+G+I ;.S+T+  ",
"                U+%.S x W.N V+l l l l :.O.W+      X+Y+x+x+x+x+x+x+x+x+Z+*+`+       @I l x W..@  ",
"            +@@@W.#@$@r.I+N.%@&@*@$@x N =@-@      ;@<+>@b+,@g+d+d+x+'@)@!@~@      {@K.Y ]@N ^@/@",
"          u.(@_@l :@<@[@}@|@  1@2@3@K 4@5@t.        6@y+O+&+7@!@8@,@O+9@0@        ]@2 a@r.y b@c@",
"        d@e@f@K.g@s+h@i@j@    k@f@$@A.T l@m@        n@o@p@g+*+q@*+r@|+s@t@      u@v@I+* x % w@  ",
"      } 0 s.x@:.h y@z@A@        B@S x * x C@          D@E@,@F@G@7@H@I@J@        K@o.L@^ R M@N@  ",
"    O@s.$@P@x % k Q@            R@x l I+S@T@U@            V@W@X@Y@Z@          `@ #W.^ .#+#! @#  ",
"  ##8+1.3@$#%#&#*#              =#L l l G.l s.-#                              ;#%#W.>#% ^ ,#'#  ",
"  )+)#S !#~#{#u.                ]#^#/#(#&.J+l _#:#                        <#[#$@}#|#x s.1#N@    ",
"  2#|.3#4#5#6#                    7#K.8#[@I+9#I % 0#a#                  b#c#i@d# +% 9.e#K+      ",
"    f#g#h#                          i#l I+I+k R z.W ] j#k#l#m#n#*.o#p#~+g@v@q#R } r#s#t#u#      ",
"                                    v#w#A.I x#x I i.& w.y#z#S *.S W.W.l l l l *.% 2 3#A#        ",
"                                      B#*.8+C#*.S i.& I D#= S l l S S l l l l m+E#F#G#          ",
"                                        H#9 I#l S z.J# +@@.@= l l l % l l l l x l K#            ",
"                                          L#M#N#% I N.@@% :.R l l x *.L A A % O#P#              ",
"                                              Q#R#S S# +W.W.S l l I+{+*@T#U#l.                  ",
"                                                  V#W#X#l M@= S I+b@Y#b Z#                      ",
"                                                          `# $ $.$                              ",
"                                                                                                ",
"                                                                                                ",
"                                                                                                ",
"                                                                                                "};
